<svg xmlns="http://www.w3.org/2000/svg" width="25.882" height="23.733" viewBox="0 0 25.882 23.733"><path d="M353.212-403.77l4.334-3.133a1.132,1.132,0,0,1,1.58.254,1.133,1.133,0,0,1-.254,1.581l-3.083,2.229,9.877,7.14,11.146-8.058a1.133,1.133,0,0,1,.286-.15l.016-.005.013,0,.013,0,.015,0a1.129,1.129,0,0,1,.32-.046,1.125,1.125,0,0,1,.515.124h0a1.128,1.128,0,0,1,.4.345,1.126,1.126,0,0,1,.15.287l.006.016,0,.013,0,.014,0,.014a1.131,1.131,0,0,1,.046.32v12.884a1.132,1.132,0,0,1-1.13,1.132l-23.618.047a1.131,1.131,0,0,1-.8-.331,1.132,1.132,0,0,1-.332-.8V-402.84a1.114,1.114,0,0,1,.046-.32l0-.016,0-.014,0-.013,0-.014a1.107,1.107,0,0,1,.07-.158,1.119,1.119,0,0,1,.2-.266A1.127,1.127,0,0,1,353.212-403.77Zm23.132,3.145-10.014,7.24a1.133,1.133,0,0,1-1.327,0l-10.014-7.24v9.581l21.354-.042Zm-10.677-9.356-2.725,1.97a1.132,1.132,0,0,1-1.58-.254,1.132,1.132,0,0,1,.254-1.58L365-412.3a1.133,1.133,0,0,1,1.327,0l7.628,5.515a1.132,1.132,0,0,1,.254,1.581,1.133,1.133,0,0,1-1.581.254Z" transform="translate(-352.726 412.51)" fill="#49ebb9" fill-rule="evenodd"/></svg>