<svg xmlns="http://www.w3.org/2000/svg" width="32.617" height="32.617" viewBox="0 0 32.617 32.617">
  <g id="Tabbar_2" data-name="Tabbar 2" transform="translate(-4.594)">
    <g id="_01" data-name="01" transform="translate(0 0)">
      <g id="_22_Icons_Line_Tab_02" data-name="22) Icons/Line/Tab 02" transform="translate(4.594)">
        <path id="Combined_Shape" data-name="Combined Shape" d="M3.4,24.463a3.4,3.4,0,0,1-3.4-3.4V4.757a3.4,3.4,0,0,1,3.4-3.4.679.679,0,0,1,0,1.359A2.042,2.042,0,0,0,1.359,4.757V21.065A2.042,2.042,0,0,0,3.4,23.1H15.629a2.041,2.041,0,0,0,2.038-2.039V4.757a2.041,2.041,0,0,0-2.038-2.039.679.679,0,1,1,0-1.359,3.4,3.4,0,0,1,3.4,3.4V21.065a3.4,3.4,0,0,1-3.4,3.4Zm1.359-6.795a.679.679,0,1,1,0-1.359h6.795a.679.679,0,1,1,0,1.359Zm0-4.078a.679.679,0,1,1,0-1.359h9.512a.679.679,0,1,1,0,1.359Zm0-4.077a.679.679,0,1,1,0-1.359h9.512a.679.679,0,1,1,0,1.359Zm7.475-7.475a.68.68,0,0,0-.68-.68H7.475a.68.68,0,0,0-.679.68.68.68,0,0,1-1.36,0A2.042,2.042,0,0,1,7.475,0h4.077A2.042,2.042,0,0,1,13.59,2.039a.679.679,0,0,1-1.359,0Z" transform="translate(6.795 4.077)"/>
      </g>
    </g>
  </g>
</svg>
