<svg xmlns="http://www.w3.org/2000/svg" width="21.371" height="18.993" viewBox="0 0 21.371 18.993"><path d="M14.938,3.09l3.347,3.347a.363.363,0,0,1,0,.512l-8.1,8.1-3.443.382a.722.722,0,0,1-.8-.8l.382-3.443,8.1-8.1A.363.363,0,0,1,14.938,3.09Zm6.011-.85L19.138.43a1.451,1.451,0,0,0-2.048,0L15.776,1.743a.363.363,0,0,0,0,.512L19.123,5.6a.363.363,0,0,0,.512,0l1.313-1.313a1.451,1.451,0,0,0,0-2.048Zm-6.7,10.608v3.777H2.375V4.752H10.9a.456.456,0,0,0,.315-.13L12.7,3.139a.445.445,0,0,0-.315-.761H1.781A1.781,1.781,0,0,0,0,4.159v13.06A1.781,1.781,0,0,0,1.781,19h13.06a1.781,1.781,0,0,0,1.781-1.781V11.364a.446.446,0,0,0-.761-.315l-1.484,1.484A.456.456,0,0,0,14.248,12.848Z" transform="translate(0 -0.007)"/></svg>