<svg xmlns="http://www.w3.org/2000/svg" width="38.617" height="37.117" viewBox="0 0 38.617 37.117"><path d="M744.594-574.655l-3.141,1.81q-4.967,2.867-9.934,5.733c-.214.123-.373.233-.373.535q.016,7.462.009,14.925c0,.056.012.112.026.239.353-.2.67-.379.987-.561.477-.274.947-.562,1.433-.82a.7.7,0,0,1,.969.257.723.723,0,0,1-.263.972c-.1.068-.2.124-.306.184-1.03.6-2.063,1.187-3.087,1.793a.837.837,0,0,1-.921.012q-7.223-4.181-14.451-8.351a1.193,1.193,0,0,1-.68-1.176q.027-8.155,0-16.31a1.354,1.354,0,0,1,.794-1.366q7.077-4.032,14.11-8.139a1.193,1.193,0,0,1,1.357-.01q7.216,4.189,14.452,8.343a.854.854,0,0,1,.471.8q-.013,3.307-.019,6.613c0,.119,0,.239,0,.358-.021.525-.3.847-.729.839s-.694-.324-.7-.864c-.006-1.743,0-3.485,0-5.228Zm-28.27.012c-.009.161-.02.26-.02.358q0,7.392-.008,14.784a.553.553,0,0,0,.335.548q6.341,3.648,12.674,7.311c.119.068.242.128.387.2a1.809,1.809,0,0,0,.03-.2q0-7.481-.011-14.962a.659.659,0,0,0-.29-.467c-1.3-.777-2.619-1.53-3.933-2.287a3.157,3.157,0,0,0-.332-.141c0,1.19-.006,2.32,0,3.451,0,.343-.022.656-.357.85a.829.829,0,0,1-.913-.118c-.831-.494-1.664-.985-2.511-1.449a.9.9,0,0,1-.522-.893c.017-1.325,0-2.65.017-3.975a.578.578,0,0,0-.337-.6c-1-.556-1.987-1.138-2.979-1.709Zm27.564-1.268c-.1-.046-.145-.061-.183-.082-1.39-.8-2.776-1.615-4.178-2.4a.676.676,0,0,0-.552.062q-6.383,3.664-12.753,7.352c-.1.056-.184.129-.308.216,1.406.811,2.776,1.589,4.13,2.393a.678.678,0,0,0,.8.009q5.765-3.352,11.547-6.675C742.863-575.307,743.332-575.585,743.887-575.911Zm-26.862.017c1.437.83,2.794,1.6,4.137,2.4a.722.722,0,0,0,.845.01q6.285-3.655,12.588-7.281c.125-.072.245-.152.408-.253-1.431-.826-2.813-1.611-4.18-2.423a.647.647,0,0,0-.762.011q-6.135,3.559-12.282,7.1C717.551-576.2,717.325-576.07,717.025-575.894Zm20.85-3.467c-.414-.239-.793-.438-1.149-.672a.461.461,0,0,0-.561.007q-6.391,3.7-12.788,7.388c-.1.058-.192.134-.319.224.384.224.719.39,1.021.6a.609.609,0,0,0,.76-.01c2.415-1.409,4.839-2.8,7.26-4.2ZM722.3-571.194c0,1.08,0,2.074,0,3.068,0,.083.01.211.061.243.429.267.87.517,1.365.806,0-1.089.007-2.07-.009-3.051a.492.492,0,0,0-.192-.35C723.155-570.719,722.762-570.927,722.3-571.194Z" transform="translate(-714.859 585.135)" fill="#1a9151"/><path d="M883.046-420.207a9.307,9.307,0,0,1,9.256-9.281,9.317,9.317,0,0,1,9.326,9.3,9.414,9.414,0,0,1-9.345,9.274A9.31,9.31,0,0,1,883.046-420.207Zm17.152.018a7.883,7.883,0,0,0-7.83-7.869,7.867,7.867,0,0,0-7.893,7.894,7.865,7.865,0,0,0,7.737,7.814A7.972,7.972,0,0,0,900.2-420.189Z" transform="translate(-863.012 448.029)" fill="#1a9151"/><path d="M956.444-399.8h4.569c.134,0,.268-.005.4,0a.719.719,0,0,1,.745.723.709.709,0,0,1-.765.7c-1.1.01-2.2,0-3.3,0-.773,0-1.547.005-2.32,0a.672.672,0,0,1-.757-.733q-.009-2.811,0-5.622a.716.716,0,0,1,.722-.79.725.725,0,0,1,.7.81c.006,1.457,0,2.915,0,4.373Z" transform="translate(-926.405 426.913)" fill="#1a9151"/></svg>