<svg xmlns="http://www.w3.org/2000/svg" width="35.662" height="38.535" viewBox="0 0 35.662 38.535"><g transform="translate(350.833 -56.934)"><path d="M-346.446,77.093c-.2.439-.411.877-.614,1.317-.632,1.372-1.255,2.747-1.9,4.115a6.385,6.385,0,0,0-.606,2.771c.01,3.1,0,6.209,0,9.314v.51h-1.273V94.71q0-4.737,0-9.473a7.454,7.454,0,0,1,.7-3.2c.925-2,1.828-4,2.771-5.987a2.913,2.913,0,0,1,.729-.916.641.641,0,0,0,.267-.553q-.008-6.548,0-13.1a4.407,4.407,0,0,1,3.08-4.316,4.764,4.764,0,0,1,1.4-.225q6.347-.025,12.695,0a4.277,4.277,0,0,1,3.86,2.252.518.518,0,0,0,.528.293q3.761-.012,7.521,0a1.928,1.928,0,0,1,2.111,2.094q0,2.388,0,4.776a1.917,1.917,0,0,1-2.04,2.045c-.822,0-1.645-.013-2.467.011a.9.9,0,0,0-.543.228c-.681.65-1.34,1.324-2,1.993a.7.7,0,0,1-.808.267.7.7,0,0,1-.418-.777c.011-.555,0-1.111,0-1.694h-1.274v.43q0,8.021-.007,16.041a.635.635,0,0,0,.3.621,7.935,7.935,0,0,1,.714.582,2.518,2.518,0,0,1,1.953-.466,2.6,2.6,0,0,1,1.727,1.126,8.182,8.182,0,0,1,1.14-.455,2.47,2.47,0,0,1,3.053,2.229c.075,2.185.019,4.374.019,6.588h-1.264v-.432c0-1.95.006-3.9,0-5.851a1.268,1.268,0,0,0-1.748-1.237,1.217,1.217,0,0,0-.792,1.141c-.016.411,0,.823-.006,1.234a.644.644,0,0,1-.638.711.644.644,0,0,1-.631-.717c-.007-.584,0-1.168,0-1.751a1.282,1.282,0,0,0-1.268-1.348,1.275,1.275,0,0,0-1.276,1.338c-.006.584,0,1.168,0,1.751a.649.649,0,0,1-.622.727c-.385.009-.645-.28-.648-.741-.006-.783,0-1.566,0-2.348a1.283,1.283,0,0,0-1.292-1.365A1.279,1.279,0,0,0-327.27,87.6c0,.716,0,1.433,0,2.149,0,.641-.212.95-.647.943s-.626-.3-.626-.963q0-4.876,0-9.752a1.279,1.279,0,0,0-1.74-1.293,1.277,1.277,0,0,0-.8,1.256q-.005,2.627,0,5.254c0,2.189,0,4.378,0,6.568,0,.378-.07.705-.473.818s-.636-.13-.821-.46c-.376-.671-.764-1.334-1.154-2a1.271,1.271,0,0,0-1.8-.542,1.27,1.27,0,0,0-.408,1.8c.649,1.139,1.307,2.272,1.986,3.452l-1.1.635c-.558-.964-1.12-1.89-1.634-2.843a9.19,9.19,0,0,1-.674-1.595,3.368,3.368,0,0,1-.016-.956h-3.646a6.223,6.223,0,0,1,1.393,5.053h-1.213c0-.4-.013-.808,0-1.213a3.6,3.6,0,0,0-.585-2.11c-.388-.617-.742-1.256-1.135-1.869a.887.887,0,0,1,0-1.033c.92-1.565,1.823-3.141,2.729-4.714a1.248,1.248,0,0,0-.018-1.391,1.219,1.219,0,0,0-1.239-.548,1.275,1.275,0,0,0-.981.725c-.885,1.54-1.778,3.075-2.663,4.615-.163.284-.327.561-.706.554-.4-.008-.552-.317-.7-.621a4.617,4.617,0,0,1-.44-2q.006-4.2,0-8.4Zm19.865-17.531a3.281,3.281,0,0,0-2.75-1.351q-6.227.007-12.455,0a3.175,3.175,0,0,0-3.313,3.3q0,11.98,0,23.96c0,.123.015.246.029.469.13-.213.207-.333.278-.456.623-1.079,1.237-2.163,1.87-3.236a2.532,2.532,0,0,1,2.816-1.231,2.531,2.531,0,0,1,1.622,3.711c-.676,1.231-1.4,2.436-2.1,3.653-.067.117-.128.237-.214.4,1.48,0,2.886,0,4.291-.007a.776.776,0,0,0,.39-.148,2.588,2.588,0,0,1,2.852-.044,3.942,3.942,0,0,0,.9.274V88.3c0-2.746,0-5.493.006-8.239a3.4,3.4,0,0,1,.13-.978,2.527,2.527,0,0,1,2.751-1.742,2.527,2.527,0,0,1,2.2,2.448c.022,1.685.006,3.37.008,5.055,0,.137.012.275.017.4l1.241-.332V68.442a2.013,2.013,0,0,1-1.9-2.349c0-1.433.028-2.866-.009-4.3A2.125,2.125,0,0,1-326.581,59.563Zm4.4,9.217c.5-.5.9-.946,1.347-1.335a1.278,1.278,0,0,1,.731-.3c.953-.034,1.909-.011,2.863-.015.566,0,.788-.227.789-.8q0-2.367,0-4.734c0-.621-.213-.831-.839-.831q-4.256,0-8.512,0c-.626,0-.836.21-.836.833q0,2.347,0,4.694c0,.627.211.839.83.84.968,0,1.936,0,2.9,0a.644.644,0,0,1,.721.707C-322.171,68.114-322.178,68.39-322.178,68.779Z" transform="translate(0 0)" fill="#1a9151"/><path d="M-110.56,105.161V106.4h7.592v-1.234Zm7.6,2.552h-7.6v1.224h7.6Z" transform="translate(-214.78 -43.11)" fill="#1a9151"/><path d="M-255.323,140.031V141.3c.176,0,.331,0,.487,0,.525.009.759.231.765.745.007.583.008,1.167,0,1.75a1.27,1.27,0,0,1-1.332,1.323c-1.458.007-2.917,0-4.375,0q-2.784,0-5.568,0a1.3,1.3,0,0,1-1.458-1.44c0-.53,0-1.061,0-1.591,0-.568.225-.784.8-.79.143,0,.286,0,.45,0v-1.275c-.2,0-.4.009-.606,0a.589.589,0,0,1-.632-.585,10.86,10.86,0,0,1,.068-1.941,3.08,3.08,0,0,1,2.982-2.556q3.3-.038,6.6,0A3.152,3.152,0,0,1-254.075,138c.013.4.006.8,0,1.193,0,.621-.213.828-.839.833Zm-3.2-3.788h-1.293v1.22h-1.265V136.24h-1.28v1.216h-1.277v-1.233a1.956,1.956,0,0,0-1.833,2.514h10.089c.2-1.445-.624-2.552-1.878-2.493v1.211h-1.262Zm3.159,7.593V142.6H-265.5v1.234Zm-1.27-3.777h-7.59v1.225h7.59Z" transform="translate(-75.112 -69.717)" fill="#1a9151"/><path d="M-220.711,81.258v1.225h-3.77V81.258Z" transform="translate(-112.946 -21.743)" fill="#1a9151"/><path d="M-212.6,333.253h1.229v1.236H-212.6Z" transform="translate(-123.564 -247.002)" fill="#1a9151"/><path d="M-110.56,105.161h7.592V106.4h-7.592Z" transform="translate(-214.78 -43.11)" fill="#1a9151"/><path d="M-102.917,129.218v1.224h-7.6v-1.224Z" transform="translate(-214.822 -64.615)" fill="#1a9151"/></g></svg>