<svg xmlns="http://www.w3.org/2000/svg" width="35.662" height="36.843" viewBox="0 0 35.662 36.843"><g transform="translate(0 0)"><path d="M-182.455-580.678c-1.805-.48-2.013-3.23-.816-4.338a1.61,1.61,0,0,1,1.15-.43c2.154.006,4.308.009,6.462-.005a1.63,1.63,0,0,0,.732-.183c1.8-.964,3.586-1.945,5.376-2.925a3.608,3.608,0,0,1,1.775-.452q5.905.009,11.81,0h.47c0-.194,0-.352,0-.509a.607.607,0,0,1,.694-.678q2.265-.006,4.531,0c.5,0,.716.217.717.73q0,3.323,0,6.647c0,.285,0,.569,0,.854-.009.444-.224.677-.655.679q-2.321.009-4.642,0a.59.59,0,0,1-.642-.653c-.008-.357,0-.715,0-1.1h-1.175a3.3,3.3,0,0,1-3.2,2.971c.381,1.3.76,2.587,1.139,3.876.429,1.458.87,2.913,1.282,4.375a4.256,4.256,0,0,1,.16,1.131q.015,8.243.007,16.487c0,.662-.178.844-.828.844h-26.257c-.676,0-.847-.174-.847-.861q0-8.225.008-16.45a4.684,4.684,0,0,1,.186-1.275c.825-2.848,1.672-5.69,2.511-8.534C-182.491-580.533-182.478-580.592-182.455-580.678ZM-162-579.5c-.188.143-.293.222-.4.3-.841.652-1.665,1.328-2.527,1.95a2.577,2.577,0,0,1-4.1-1.748,7.73,7.73,0,0,1,.155-1.688h-12.33c-.044.131-.09.257-.128.386q-1.285,4.354-2.564,8.711a3.314,3.314,0,0,0-.134.91q-.012,7.852-.006,15.7v.4h19.613v-.464q0-7.834.007-15.668a4.5,4.5,0,0,1,.173-1.2c.438-1.545.907-3.081,1.362-4.621C-162.587-577.48-162.308-578.438-162-579.5Zm-10.649-6.016.027.068h.408c2.736,0,5.472,0,8.208.006a1.04,1.04,0,0,1,.555.142c.331.225.294.624-.065.983q-1.941,1.945-3.887,3.886a1.416,1.416,0,0,0-.467,1.27,1.418,1.418,0,0,0,2.3.915c.911-.682,1.843-1.347,2.687-2.106a3.2,3.2,0,0,1,2.753-.939,1.126,1.126,0,0,0,.185,0,2.026,2.026,0,0,0,2.065-1.959.964.964,0,0,1,1.073-1.011c.428,0,.857,0,1.277,0v-3.565H-156c-3.615,0-7.231.028-10.845-.017a5.249,5.249,0,0,0-2.956.756C-170.722-586.512-171.7-586.031-172.647-585.511Zm11.844,6.49-.078,0c-.019.054-.041.108-.057.163q-1.105,3.732-2.206,7.465a2.108,2.108,0,0,0-.077.585q-.006,7.538,0,15.076c0,.089.018.179.035.339.537-.546,1.015-1.048,1.512-1.53a.735.735,0,0,0,.239-.583q-.01-6.09,0-12.18a2.278,2.278,0,0,1,.008-.371.56.56,0,0,1,.577-.521.56.56,0,0,1,.592.5,1.955,1.955,0,0,1,.011.37q0,5.477,0,10.955a4.246,4.246,0,0,0,.049,1.542c.191.456.7.78,1.072,1.158.2.2.406.4.662.646v-.5c0-4.431-.022-8.863.014-13.294a10.669,10.669,0,0,0-.551-3.75c-.171-.476-.291-.97-.434-1.456Zm-4.463-5.215c-.132-.011-.177-.018-.223-.018q-8.3,0-16.59,0a.566.566,0,0,0-.557.349,1.836,1.836,0,0,0-.005,1.679.587.587,0,0,0,.589.358q7.089-.01,14.178-.01a.56.56,0,0,0,.36-.124C-166.778-582.722-166.055-583.45-165.266-584.236Zm14.5,1.747v-6.49h-3.52v6.49Zm-8.657,27.928-1.4-1.4-1.416,1.4Z" transform="translate(185.214 590.198)" fill="#1a9151"/><path d="M49.6-243.036H46.786l1.416-1.4Z" transform="translate(-23.814 278.673)" fill="#1a9151"/><path d="M-132.554-401.782c0-.558,0-1.1,0-1.643,0-.436.234-.7.594-.7s.584.267.593.7c0,.025,0,.05,0,.074a6.438,6.438,0,0,1-1.009,4.373,1.22,1.22,0,0,0-.134.7c.143,2.172.316,4.342.456,6.514a1.771,1.771,0,0,1-1.763,1.892q-.519.013-1.039,0a1.77,1.77,0,0,1-1.769-1.886c.113-1.827.258-3.652.39-5.478.029-.407.069-.814.089-1.221a1.12,1.12,0,0,0-.063-.356,1.473,1.473,0,0,0-.115-.232,6.289,6.289,0,0,1-.986-4.373c.008-.44.226-.705.585-.711s.6.268.6.731c0,.531,0,1.061,0,1.617h1.189c0-.531,0-1.059,0-1.587,0-.492.228-.772.609-.761s.577.28.579.755c0,.519,0,1.039,0,1.589Zm-2.418,3.608c-.025.342-.047.649-.069.955-.132,1.814-.267,3.628-.393,5.442a.615.615,0,0,0,.686.721c.247.005.5,0,.743,0,.581,0,.8-.252.759-.829-.122-1.653-.237-3.307-.356-4.961-.032-.441-.07-.881-.106-1.329Zm2.03-2.355h-2.773c.477,1.155.477,1.155,1.666,1.155a1.962,1.962,0,0,0,.37-.006.356.356,0,0,0,.227-.137C-133.275-399.84-133.119-400.173-132.942-400.529Z" transform="translate(142.064 422.55)" fill="#1a9151"/><path d="M-66.351-399.4a43.965,43.965,0,0,0,.429,7.211,2.362,2.362,0,0,1-.379,1.723c-.585.836-3.09.848-3.66,0a2,2,0,0,1-.409-1.348c.138-1.415.262-2.832.429-4.243a.636.636,0,0,0-.422-.793c-.8-.356-.794-.382-.679-1.278a11.337,11.337,0,0,1,1.136-3.892,3.7,3.7,0,0,1,1.454-1.645,4.308,4.308,0,0,1,1.322-.426c.532-.087.778.178.779.72C-66.348-402.214-66.351-401.051-66.351-399.4Zm-1.2-3.4a2.431,2.431,0,0,0-1.215,1.16,10.113,10.113,0,0,0-1.082,3.481c-.037.23.093.292.253.378.36.192.814.283.886.77h1.158Zm-1.24,7.026c-.133,1.356-.271,2.68-.389,4.007-.043.483.188.715.664.725.259.006.519.006.778,0,.441-.012.685-.241.648-.669-.118-1.349-.258-2.7-.391-4.063Z" transform="translate(82.398 422.539)" fill="#1a9151"/></g></svg>