<svg xmlns="http://www.w3.org/2000/svg" width="17.812" height="19.593" viewBox="0 0 17.812 19.593"><g transform="translate(-23.272)"><g transform="translate(23.272)"><path d="M40.193,14.25H39.3V7.125a7.125,7.125,0,1,0-14.25,0V14.25h-.891a.891.891,0,0,0,0,1.781h4.453a3.562,3.562,0,0,0,7.125,0h4.453a.891.891,0,1,0,0-1.781Zm-8.015,3.562A1.783,1.783,0,0,1,30.4,16.031h3.562A1.783,1.783,0,0,1,32.178,17.812Zm5.344-3.562H26.834V7.125a5.344,5.344,0,0,1,10.687,0Z" transform="translate(-23.272)"/></g></g></svg>