<svg xmlns="http://www.w3.org/2000/svg" width="42.478" height="42.478" viewBox="0 0 42.478 42.478"><g transform="translate(-903.033 -220)"><path d="M294.072-621.517c-.1.47-.169.947-.293,1.41a8.756,8.756,0,0,1-9.883,6.42,1.216,1.216,0,0,0-.155,0v13.048l.253.034a2.07,2.07,0,0,1,1.864,2.245,2.053,2.053,0,0,1-2.1,1.976c-2.06.018-4.12,0-6.18.009-.87,0-1.742.008-2.609.068a10.356,10.356,0,0,0-4.059,1.213c-.9.463-1.788.931-2.688,1.383a.6.6,0,0,1-.859-.234.59.59,0,0,1,.269-.844c1.379-.7,2.741-1.437,4.159-2.047a10.921,10.921,0,0,1,4.375-.789q3.712.007,7.424,0c.658,0,1.03-.319,1.034-.869a.834.834,0,0,0-.77-.871,4.654,4.654,0,0,0-.5-.011h-14.31c-.111,0-.221,0-.332,0a1.155,1.155,0,0,1-1.114-.654,1.139,1.139,0,0,1,.133-1.247l2.357-3.258a4.138,4.138,0,0,0,.237-.34.863.863,0,0,0-.169-1.093.8.8,0,0,0-1.124.059c-.54.554-1.058,1.13-1.584,1.7-1.06,1.148-2.122,2.293-3.176,3.446a9.2,9.2,0,0,1-2.733,2.056c-.631.313-1.279.6-1.885.951a10.5,10.5,0,0,1-4.538,1.3c-.742.061-1.479.177-2.247.272v6.276c1.318-.205,2.626-.407,3.933-.612.778-.122,1.553-.258,2.333-.367a8.061,8.061,0,0,0,2.659-.881c.952-.5,1.911-.994,2.866-1.49.086-.045.17-.091.257-.134.432-.212.783-.132.959.216s.042.658-.372.877c-.866.458-1.743.9-2.608,1.359a9.922,9.922,0,0,1-3.032,1.188c-1.949.32-3.9.616-5.852.926-.448.071-.893.163-1.339.245h-1.079v-8.214a1.025,1.025,0,0,1,.909-.6q2.12-.242,4.232-.549a3.863,3.863,0,0,0,1.1-.332c1.256-.6,2.493-1.247,3.742-1.866a.619.619,0,0,0,.377-.647c-.015-2.9-.009-5.806-.008-8.709,0-.152-.045-.342.027-.447a1.192,1.192,0,0,1,.51-.455.487.487,0,0,1,.63.332,1.727,1.727,0,0,1,.074.569q.007,3.753,0,7.506v.545c.293-.31.509-.533.72-.762q2.067-2.24,4.134-4.48a2,2,0,0,1,2.063-.651,1.972,1.972,0,0,1,1.514,1.49,2.054,2.054,0,0,1-.357,1.806q-1.073,1.475-2.138,2.955c-.094.131-.187.263-.315.444h13.65v-.45q0-6.262.008-12.525a.539.539,0,0,0-.376-.571,3.23,3.23,0,0,0-3.207.049c-.373.205-.781.348-1.174.517a.762.762,0,0,1-.912-.175.755.755,0,0,1-.158-.88c.228-.533.442-1.072.685-1.6a2.941,2.941,0,0,0,.012-2.444,12.5,12.5,0,0,1-.653-2.215c-.079-.4-.222-.466-.581-.465-2.972.013-5.944.007-8.916.007-.912,0-1.825.009-2.737-.005-.255,0-.368.073-.41.33-.257,1.553-.58,3.1-.771,4.657a29.893,29.893,0,0,0-.078,3.064c0,.166.006.332,0,.5-.023.427-.26.689-.619.694-.374.005-.6-.267-.624-.72a28.828,28.828,0,0,1,.718-7.526c.065-.31.11-.625.168-.957-.066-.035-.121-.07-.18-.094a1.179,1.179,0,0,1-.795-1.188c0-.926,0-1.852,0-2.779a1.184,1.184,0,0,1,1.346-1.352c2.24-.006,4.479,0,6.718,0,2.488,0,4.977,0,7.465,0a.626.626,0,0,0,.6-.316,8.58,8.58,0,0,1,6.222-3.9,1.446,1.446,0,0,0,.232-.072h1.659l.851.161a8.425,8.425,0,0,1,2.988,1.172.626.626,0,0,1,.243.89.624.624,0,0,1-.876.175c-.073-.038-.141-.086-.213-.127a7.391,7.391,0,0,0-6.116-.646,7.448,7.448,0,0,0-4.6,9.971,4.4,4.4,0,0,1,0,3.872,1.955,1.955,0,0,0-.091.31.775.775,0,0,0,.172-.032,4.438,4.438,0,0,1,4.135-.021,6.563,6.563,0,0,0,3.942.412,7.482,7.482,0,0,0,4.84-11.789c-.3-.431-.279-.781.058-1.012.316-.217.657-.12.949.282a8.352,8.352,0,0,1,1.347,2.779c.13.49.222.99.331,1.485Zm-16.986-3.989H263.134v2.838H276.49Z" transform="translate(651.439 851.058)" fill="#1a9151"/><path d="M517.291-573.394l2.016-1.808c.966-.867,1.929-1.737,2.9-2.6a.64.64,0,0,1,1.008.022c.208.291.134.623-.219.94q-1.725,1.552-3.453,3.1c-.586.526-1.169,1.055-1.76,1.574a.656.656,0,0,1-1.047-.029q-1.265-1.225-2.52-2.459c-.342-.336-.383-.708-.122-.98s.62-.265.98.081C515.808-574.846,516.535-574.13,517.291-573.394Z" transform="translate(418.127 803.899)" fill="#1a9151"/></g></svg>