<?xml version="1.0" encoding="utf-8"?>
<!-- Generator: Adobe Illustrator 21.1.0, SVG Export Plug-In . SVG Version: 6.00 Build 0)  -->
<svg version="1.1" id="Layer_1" xmlns="http://www.w3.org/2000/svg" xmlns:xlink="http://www.w3.org/1999/xlink" x="0px" y="0px"
	 viewBox="0 0 54 54" style="enable-background:new 0 0 54 54;" xml:space="preserve">
<style type="text/css">
	.st0{fill:none;}
</style>
<g>
	<rect x="-0.2" y="0.1" class="st0" width="53.8" height="53.4"/>
	<path d="M18.9,6.3c2.6-1.1,5.3-1.7,8.2-1.7c2.8,0,5.6,0.6,8.2,1.7c2.6,1.1,4.8,2.6,6.7,4.5c1.9,1.9,3.4,4.1,4.5,6.7
		c1.1,2.6,1.7,5.3,1.7,8.2c0,2.8-0.6,5.6-1.7,8.2s-2.6,4.8-4.5,6.7c-1.9,1.9-4.1,3.4-6.7,4.5s-5.3,1.7-8.2,1.7
		c-3.6,0-7-0.9-10.2-2.6L5.2,47.9L9,36.6c-2-3.3-3-6.9-3-10.9c0-2.8,0.6-5.6,1.7-8.2c1.1-2.6,2.6-4.8,4.5-6.7
		C14,8.9,16.3,7.5,18.9,6.3z M27,43.2c2.4,0,4.6-0.5,6.8-1.4c2.2-0.9,4-2.2,5.6-3.7s2.8-3.4,3.7-5.6s1.4-4.4,1.4-6.8
		s-0.5-4.6-1.4-6.8c-0.9-2.2-2.2-4-3.7-5.6s-3.4-2.8-5.6-3.7c-2.2-0.9-4.4-1.4-6.8-1.4c-2.4,0-4.6,0.5-6.8,1.4
		c-2.2,0.9-4,2.2-5.6,3.7s-2.8,3.4-3.7,5.6c-0.9,2.2-1.4,4.4-1.4,6.8c0,3.8,1.1,7.2,3.3,10.3l-2.2,6.5l6.8-2.1
		C20.3,42.3,23.6,43.2,27,43.2z M31.2,29.8c0.7-0.9,1.2-1.4,1.5-1.4c0.2,0,1.1,0.4,2.7,1.2c1.6,0.8,2.4,1.3,2.5,1.5
		c0,0.1,0.1,0.2,0.1,0.4c0,0.6-0.2,1.3-0.5,2.1c-0.3,0.7-1,1.3-2,1.8c-1,0.5-2,0.7-2.8,0.7c-1.1,0-2.8-0.6-5.3-1.7
		c-1.8-0.8-3.4-1.9-4.7-3.3c-1.3-1.4-2.7-3.1-4.1-5.2c-1.3-2-2-3.8-2-5.4v-0.2c0.1-1.7,0.7-3.2,2.1-4.4c0.4-0.4,0.9-0.6,1.5-0.6
		c0.1,0,0.3,0,0.5,0c0.2,0,0.4,0,0.5,0c0.4,0,0.6,0.1,0.7,0.2c0.1,0.1,0.3,0.4,0.4,0.8c0.1,0.4,0.5,1.2,0.9,2.5
		c0.5,1.3,0.7,2,0.7,2.1c0,0.4-0.3,0.9-1,1.6c-0.6,0.7-1,1.1-1,1.3c0,0.1,0,0.3,0.1,0.4c0.6,1.4,1.6,2.6,2.8,3.8
		c1,1,2.4,1.9,4.2,2.8c0.2,0.1,0.4,0.2,0.6,0.2C30,31.1,30.5,30.7,31.2,29.8z"/>
</g>
</svg>
