<svg xmlns="http://www.w3.org/2000/svg" width="20.757" height="22.988" viewBox="0 0 20.757 22.988">
  <path id="Path_620" data-name="Path 620" d="M969.314-405.538l.015-.013,9.224-8.011a1.155,1.155,0,0,1,1.515,0l5.041,4.378a1.159,1.159,0,0,1,.115,1.63,1.157,1.157,0,0,1-1.631.115l-4.282-3.72-8.069,7.008v10.984h16.136v-11.511a1.156,1.156,0,0,1,1.155-1.155,1.156,1.156,0,0,1,1.155,1.155v12.666a1.152,1.152,0,0,1-1.155,1.155H970.086a1.155,1.155,0,0,1-1.155-1.155v-12.751l0-.032,0-.018a1.148,1.148,0,0,1,.065-.268l.018-.045,0-.005v0l.01-.021.01-.021v0l0-.005.022-.043a1.14,1.14,0,0,1,.16-.225l.012-.014.023-.023,0,0,0,0,.013-.014.02-.018.005,0Z" transform="translate(-968.931 413.846)" fill-rule="evenodd"/>
</svg>
