<svg xmlns="http://www.w3.org/2000/svg" xmlns:xlink="http://www.w3.org/1999/xlink" width="22.999" height="31" viewBox="0 0 22.999 31"><defs><linearGradient id="a" x1="0.5" x2="0.5" y2="1" gradientUnits="objectBoundingBox"><stop offset="0" stop-color="#4beebc"/><stop offset="1" stop-color="#3ddaaa"/></linearGradient></defs><g transform="translate(-65 -76)"><path d="M-811.125-327A2.894,2.894,0,0,1-814-329.906v-13.563a2.894,2.894,0,0,1,2.875-2.906h.958v-3.875A7.716,7.716,0,0,1-802.5-358a7.716,7.716,0,0,1,7.667,7.75v3.875h.958A2.894,2.894,0,0,1-791-343.469v13.563A2.894,2.894,0,0,1-793.875-327Zm-.958-16.469v13.563a.965.965,0,0,0,.958.969h17.25a.965.965,0,0,0,.958-.969v-13.563a.965.965,0,0,0-.958-.969h-17.25A.965.965,0,0,0-812.083-343.469Zm15.333-2.906v-3.875a5.788,5.788,0,0,0-5.75-5.812,5.788,5.788,0,0,0-5.75,5.813v3.875Z" transform="translate(879 434)" fill="url(#a)"/></g></svg>