<svg xmlns="http://www.w3.org/2000/svg" xmlns:xlink="http://www.w3.org/1999/xlink" width="15.436" height="27.749" viewBox="0 0 15.436 27.749"><defs><linearGradient id="a" x1="0.5" x2="0.5" y2="1" gradientUnits="objectBoundingBox"><stop offset="0" stop-color="#4beebc"/><stop offset="1" stop-color="#3ddaaa"/></linearGradient></defs><g transform="translate(-113.692)"><g transform="translate(113.692)"><path d="M126.189,0h-9.507a2.968,2.968,0,0,0-2.99,2.893V24.86a2.939,2.939,0,0,0,2.961,2.89l9.523-.01a2.92,2.92,0,0,0,2.938-2.89l.014-21.958A2.914,2.914,0,0,0,126.189,0Zm-6.127,1.734h2.758a.434.434,0,1,1,0,.867h-2.758a.434.434,0,1,1,0-.867Zm-1.657.138a.46.46,0,0,1,.622,0,.427.427,0,0,1,0,.614.447.447,0,0,1-.31.128.453.453,0,0,1-.312-.128.433.433,0,0,1,0-.614Zm2.948,25.018a1.3,1.3,0,1,1,1.316-1.3A1.308,1.308,0,0,1,121.352,26.89Zm6.411-3.477H115.231V4.119h12.532Z" transform="translate(-113.692 0)" fill="url(#a)"/></g></g></svg>